<svg version="1.1" id="Layer_1" xmlns="http://www.w3.org/2000/svg" xmlns:xlink="http://www.w3.org/1999/xlink" x="0px" y="0px" viewBox="0 0 226 175" style="enable-background:new 0 0 226 175;" xml:space="preserve">
<path class="st0" d="M213.7,47.8c-8-13.9-18.9-23.8-28.2-26.9c-0.3-0.6-0.6-1.1-1-1.4c-11.3-12.2-133-15-144,0
	c-0.4,0.6-0.8,1.4-1.1,2.3c-8.8,3.8-18.6,13.2-26,26.1c-11.8,20.5-2.9,47.8-2.9,47.8s18.7-3.9,32-16.5c5.8,35,15.2,72.8,18,76.4
	c4.9,6.5,5.7,15,52,15c46.3,0,46.3-8.3,52-15c3.2-3.8,12.7-42.6,18.4-78c13.4,13.8,33.6,18.1,33.6,18.1S225.5,68.3,213.7,47.8z"/>
<path class="st1" d="M112.1,139.5c-21.8,0-43.5-3.1-58.4-5.9c3,11.9,5.5,20.3,6.7,21.9c4.9,6.5,5.7,15,52,15c46.3,0,46.3-8.3,52-15
	c1.4-1.7,4-10,7-21.8C156.2,136.4,134.1,139.5,112.1,139.5z"/>
<g class="st2">
	<path class="st3" d="M40.5,19.5c-0.4,0.6-0.8,1.4-1.1,2.3c-8.8,3.8-18.6,13.2-26,26.1c-11.8,20.5-2.9,47.8-2.9,47.8
		s18.7-3.9,32-16.5c3.9,23.9,9.6,49,13.7,63.7c1.4-40.1,10.5-108.2,55-133.5C78.3,9,45.9,12.1,40.5,19.5z"/>
	<ellipse transform="matrix(0.866 -0.5 0.5 0.866 -55.4706 94.9796)" class="st3" cx="149.5" cy="151" rx="10" ry="5.5"/>
</g>
<path class="st4" d="M213.7,47.8c-8-13.9-18.9-23.8-28.2-26.9c-0.3-0.6-0.6-1.1-1-1.4c-11.3-12.2-133-15-144,0
	c-0.4,0.6-0.8,1.4-1.1,2.3c-8.8,3.8-18.6,13.2-26,26.1c-11.8,20.5-2.9,47.8-2.9,47.8s18.7-3.9,32-16.5c5.8,35,15.2,72.8,18,76.4
	c4.9,6.5,5.7,15,52,15c46.3,0,46.3-8.3,52-15c3.2-3.8,12.7-42.6,18.4-78c13.4,13.8,33.6,18.1,33.6,18.1S225.5,68.3,213.7,47.8z"/>
<g>
	<g>
		<path class="st1" d="M94.5,74.5h37c2.2,0,4-1.8,4-4s-1.8-4-4-4h-37c-2.2,0-4,1.8-4,4S92.3,74.5,94.5,74.5z M131.5,78.5h-37
			c-2.2,0-4,1.8-4,4s1.8,4,4,4h37c2.2,0,4-1.8,4-4S133.7,78.5,131.5,78.5z M111.5,100.5h-17c-2.2,0-4,1.8-4,4s1.8,4,4,4h17
			c2.2,0,4-1.8,4-4S113.7,100.5,111.5,100.5z M131.5,100.5c-2.2,0-4,1.8-4,4s1.8,4,4,4s4-1.8,4-4S133.7,100.5,131.5,100.5z"/>
	</g>
</g>
</svg>