<?xml version="1.0" encoding="utf-8"?>
<!-- Generator: Adobe Illustrator 16.0.0, SVG Export Plug-In . SVG Version: 6.00 Build 0)  -->
<!DOCTYPE svg PUBLIC "-//W3C//DTD SVG 1.1//EN" "http://www.w3.org/Graphics/SVG/1.1/DTD/svg11.dtd">
<svg version="1.1" id="mia" xmlns="http://www.w3.org/2000/svg" xmlns:xlink="http://www.w3.org/1999/xlink" x="0px" y="0px"
	 width="841.89px" height="595.281px" viewBox="0 0 841.89 595.281" enable-background="new 0 0 841.89 595.281"
	 xml:space="preserve">
<path fill="#219B83" d="M629.811,282.123c-11.137-19.35-26.31-33.131-39.257-37.446c-0.417-0.835-0.835-1.531-1.391-1.949
	c-15.731-16.983-185.144-20.881-200.455,0c-0.558,0.835-1.114,1.949-1.531,3.202c-12.25,5.29-25.893,18.375-36.193,36.333
	c-16.427,28.537-4.037,66.539-4.037,66.539s26.031-5.428,44.546-22.969c8.073,48.723,21.159,101.342,25.057,106.354
	c6.821,9.049,7.935,20.881,72.387,20.881c64.451,0,64.451-11.555,72.387-20.881c4.454-5.289,17.679-59.301,25.613-108.579
	c18.654,19.21,46.772,25.194,46.772,25.194S646.237,310.66,629.811,282.123z"/>
<ellipse id="shadow" opacity="0.4" fill="#2C3332" enable-background="new    " cx="485.057" cy="520.541" rx="66.225" ry="22.77"/>
<path fill="#065142" d="M487.702,409.779c-30.347,0-60.555-4.316-81.296-8.213c4.176,16.564,7.656,28.258,9.327,30.484
	c6.821,9.049,7.935,20.881,72.387,20.881c64.451,0,64.451-11.555,72.387-20.881c1.948-2.365,5.567-13.92,9.744-30.346
	C549.091,405.462,518.327,409.779,487.702,409.779z"/>
<g>
	<path fill="#25D6B4" d="M388.031,242.733c-0.557,0.835-1.114,1.948-1.531,3.202c-12.25,5.29-25.893,18.375-36.193,36.332
		c-16.427,28.538-4.036,66.54-4.036,66.54s26.03-5.43,44.545-22.969c5.429,33.27,13.363,68.211,19.071,88.674
		c1.948-55.82,14.616-150.62,76.562-185.839C440.65,228.115,395.547,232.431,388.031,242.733z"/>
	
		<ellipse transform="matrix(-0.5 -0.866 0.866 -0.5 440.8863 1106.1141)" fill="#25D6B4" cx="539.759" cy="425.781" rx="7.657" ry="13.92"/>
</g>
<g>
	<g>
		<path fill="#127F7F" d="M463.201,319.294h51.507c3.063,0,5.567-2.505,5.567-5.567s-2.505-5.569-5.567-5.569h-51.507
			c-3.063,0-5.567,2.507-5.567,5.569S460.138,319.294,463.201,319.294z M514.708,324.863h-51.507c-3.063,0-5.567,2.506-5.567,5.568
			s2.505,5.568,5.567,5.568h51.507c3.063,0,5.567-2.506,5.567-5.568S517.77,324.863,514.708,324.863z M486.866,355.488h-23.665
			c-3.063,0-5.567,2.506-5.567,5.57c0,3.061,2.505,5.566,5.567,5.566h23.665c3.063,0,5.568-2.506,5.568-5.566
			C492.434,357.994,489.928,355.488,486.866,355.488z M514.708,355.488c-3.063,0-5.569,2.506-5.569,5.57
			c0,3.061,2.506,5.566,5.569,5.566c3.063,0,5.567-2.506,5.567-5.566C520.275,357.994,517.77,355.488,514.708,355.488z"/>
	</g>
</g>
<path fill="#EAECE8" d="M609.32,103.455c-1.938-32.884-72.346-62.472-123.318-62.472c-50.909,0-120.193,33.895-122.39,66.521
	c-1.034,6.137,18.732,23.501,18.732,33.127c0,34.628-18.12,64.344-3.973,77.137c1.293,1.162,22.836-3.94,24.258-2.841
	c24.162,18.994,63.7,28.038,84.438,28.038c20.997,0,60.275-8.979,84.438-27.909c1.485-1.163,23.434,7.531,24.79,6.303
	c14.149-12.793-4.311-46.1-4.311-80.728C591.986,131.134,610.354,109.528,609.32,103.455z"/>
<path fill="#9BB2B0" d="M580.356,138.535c-0.064-10.595-0.516-23-3.682-28.426c-0.839-1.486-2.326-4.005-12.533-4.522
	c-6.332-0.323-13.05-0.646-19.833-0.905c-21.449-0.84-43.803-1.227-57.306-1.227c-13.501,0-35.79,0.452-57.304,1.227
	c-6.783,0.259-13.438,0.582-19.703,0.905c-10.209,0.517-11.565,2.907-12.47,4.522c-3.037,5.297-3.554,17.314-3.618,27.78
	c0.064,30.105,1.163,49.358,11.112,58.402c1.485,1.357,3.166,2.714,4.846,4.006c21.513,16.086,57.949,25.067,77.137,25.067
	c16.54,0,46.258-6.654,68.029-18.735c3.295-1.874,6.461-3.812,9.303-5.88c1.938-1.422,3.813-2.908,5.491-4.394
	c4.071-3.682,6.59-9.109,8.142-16.28c1.873-8.721,2.26-20.092,2.389-34.046c0-2.003,0-4.005,0-6.073
	C580.356,139.375,580.356,138.923,580.356,138.535z"/>
<path fill="#A4BCB9" d="M544.373,104.618c-21.45-0.84-43.803-1.227-57.305-1.227s-35.791,0.452-57.304,1.227
	c-18.542,11.306-30.3,31.85-30.3,67.188c0,9.626,5.038,17.702,12.855,24.356c20.868,17.832,61.311,25.196,74.813,25.196
	c10.982,0,39.861-4.909,61.438-16.346c4.911-2.584,9.434-5.556,13.309-8.851c7.753-6.654,12.857-14.666,12.857-24.356
	C574.672,136.468,562.914,115.988,544.373,104.618z"/>
<path fill="#EAECE8" d="M569.892,196.227c-1.681,1.551-3.49,2.972-5.493,4.393c-2.842,2.069-6.008,4.072-9.303,5.879
	c-21.771,12.082-51.489,18.736-68.028,18.736c-19.188,0-55.625-9.045-77.138-25.067c-1.744-1.292-3.359-2.583-4.846-4.005
	c-9.949-9.045-11.047-28.297-11.112-58.403c0,0.646,0,1.292,0,1.938c0,32.302,2.003,52.846,12.404,62.278
	c0.582,0.518,1.099,0.97,1.681,1.487c20.866,17.571,58.854,26.94,79.011,26.94c18.477,0,52.007-7.882,73.52-22.677
	c1.938-1.356,3.747-2.713,5.492-4.134c0.646-0.517,1.228-1.034,1.874-1.616c5.103-4.651,8.204-12.016,10.078-22.094
	C576.416,187.053,573.961,192.48,569.892,196.227z"/>
<path fill="#219B83" d="M580.349,122.404c-2.32-14.557-8.642-19.487-23.199-20.241c-23.778-1.276-53.531-1.914-69.769-1.914
	c-16.24,0-45.877,0.696-69.713,1.914c-14.5,0.753-20.763,5.684-23.083,20.009c-0.929,5.51-1.218,12.469-1.218,21.111
	c0,31.087,1.854,52.14,14.557,63.624c1.16,1.043,2.377,2.087,3.654,3.074c21.689,17.051,57.185,25.17,75.803,25.17
	c18.848,0,54.109-8.061,75.801-25.054c1.334-1.044,2.552-2.087,3.769-3.189c12.703-11.484,14.616-32.537,14.616-63.624
	C581.567,134.758,581.278,127.856,580.349,122.404z M571.127,148.735c-0.058,12.585-0.463,22.734-2.146,30.564
	c-1.624,9.047-4.408,15.659-9.048,19.834c-0.521,0.464-1.102,0.986-1.682,1.451c-1.566,1.275-3.19,2.551-4.931,3.711
	c-19.312,13.34-49.412,20.358-66,20.358c-18.095,0-52.197-8.412-70.931-24.185c-0.521-0.464-1.043-0.871-1.507-1.335
	c-9.279-8.467-11.137-26.91-11.137-55.909c0-0.58,0-1.16,0-1.74c0.059-9.395,0.522-20.183,3.249-24.938
	c0.812-1.45,2.029-3.596,11.193-4.06c5.626-0.291,11.656-0.581,17.689-0.813c19.254-0.753,39.321-1.102,51.442-1.102
	c12.122,0,32.188,0.406,51.443,1.102c6.09,0.232,12.121,0.522,17.806,0.813c9.163,0.464,10.498,2.725,11.251,4.06
	c2.785,4.872,3.248,16.007,3.306,25.519c0,0.406,0,0.754,0,1.102C571.127,145.14,571.127,146.938,571.127,148.735z"/>
<ellipse fill="#2C3332" cx="439.424" cy="147.929" rx="7.5" ry="10.169"/>
<ellipse fill="#2C3332" cx="534.607" cy="147.929" rx="7.5" ry="10.169"/>
<path fill="none" stroke="#000000" stroke-miterlimit="10" d="M468.133,172.342c0,12.978-9.393,23.48-21,23.48"/>
<path fill="none" stroke="#000000" stroke-miterlimit="10" d="M462.967,187.648c20.961,0.079,41.949,1,63,1"/>
<g>
	<rect x="483.038" y="52.226" fill="#ED0000" width="8.589" height="36.646"/>
	
		<rect x="469.009" y="66.255" transform="matrix(1 -0.0053 0.0053 1 -0.3654 2.5723)" fill="#ED0000" width="36.646" height="8.589"/>
</g>
</svg>
